<?xml version="1.0" encoding="UTF-8" standalone="no"?>
<svg
   xmlns:dc="http://purl.org/dc/elements/1.1/"
   xmlns:cc="http://creativecommons.org/ns#"
   xmlns:rdf="http://www.w3.org/1999/02/22-rdf-syntax-ns#"
   xmlns:svg="http://www.w3.org/2000/svg"
   xmlns="http://www.w3.org/2000/svg"
   xmlns:sodipodi="http://sodipodi.sourceforge.net/DTD/sodipodi-0.dtd"
   xmlns:inkscape="http://www.inkscape.org/namespaces/inkscape"
   version="1.1"
   width="32.599998"
   height="25"
   viewBox="0 0 32.599998 25"
   enable-background="new 0 0 76.00 76.00"
   xml:space="preserve"
   id="svg4136"
   inkscape:version="0.91 r13725"
   sodipodi:docname="github-icon.svg"
   inkscape:export-filename="D:\webdev\Projects\Portfolio (markallum.co.uk)\V1\img\github-icon.png"
   inkscape:export-xdpi="47.32"
   inkscape:export-ydpi="47.32"><metadata
     id="metadata4144"><rdf:RDF><cc:Work
         rdf:about=""><dc:format>image/svg+xml</dc:format><dc:type
           rdf:resource="http://purl.org/dc/dcmitype/StillImage" /><dc:title></dc:title></cc:Work></rdf:RDF></metadata><defs
     id="defs4142" /><sodipodi:namedview
     pagecolor="#ffffff"
     bordercolor="#666666"
     borderopacity="1"
     objecttolerance="10"
     gridtolerance="10"
     guidetolerance="10"
     inkscape:pageopacity="0"
     inkscape:pageshadow="2"
     inkscape:window-width="2238"
     inkscape:window-height="1368"
     id="namedview4140"
     showgrid="false"
     inkscape:zoom="4.006579"
     inkscape:cx="-53.164133"
     inkscape:cy="15.874278"
     inkscape:window-x="1193"
     inkscape:window-y="0"
     inkscape:window-maximized="0"
     inkscape:current-layer="svg4136" /><path
     d="M 23.807414,-2.1067044e-7 C 24.231335,0.96299179 24.505997,2.5616018 24.096206,3.7322158 c 1.675705,1.430751 2.251778,4.909402 1.443107,7.7513832 2.388352,0.182582 5.232897,-0.08735 7.069166,0.645675 -1.716717,-0.220702 -4.060837,-0.653627 -6.275349,-0.502922 -0.419583,0.02826 -1.04094,-0.01597 -1.01051,0.574298 2.563048,0.201051 5.110124,0.420241 7.214482,1.07676 -2.086941,-0.340911 -4.621004,-0.859804 -7.214482,-0.932561 -1.07137,2.114414 -3.227519,3.153251 -6.203906,3.372047 0.31988,0.696414 0.932561,0.961217 1.082543,2.081552 0.2232,1.672747 -0.349258,4.123472 0.215247,5.238681 0.271047,0.534075 0.712648,0.548534 1.01051,1.005054 -0.729013,0.863091 -2.536232,-0.09635 -2.742014,-1.005054 -0.352545,-1.556087 0.536967,-3.968758 -0.432597,-5.0235 0.06881,1.697065 -0.401115,4.08108 0.07243,5.597403 0.186591,0.596382 0.725398,0.826483 0.57719,1.364172 -3.388018,0.344198 -1.972844,-4.385514 -2.526045,-7.176756 -0.510874,0.03621 -0.286623,0.765556 -0.287938,1.076366 -0.01498,2.726438 0.557473,6.465226 -2.380531,6.10039 -0.08662,-0.572458 0.39382,-0.76779 0.576402,-1.290955 0.536638,-1.534069 -0.100361,-3.819563 0.146039,-5.67062 -1.121715,0.845279 0.117383,3.797086 -0.577519,5.310452 -0.40072,0.870714 -1.690558,1.250008 -2.669192,0.860855 0.127176,-0.648566 0.797432,-0.543802 1.081163,-1.147807 0.397106,-0.842716 0.0029,-2.055788 0.144922,-3.301065 -2.076096,0.414128 -3.68588,-0.06014 -4.473387,-1.363712 C 7.583261,17.786815 7.495584,17.096973 7.069494,16.578541 6.645573,16.059648 5.968416,15.989783 5.771638,15.287191 c 2.571,-0.618859 2.669192,2.645663 4.978281,2.726438 0.707916,0.02576 1.075709,-0.204665 1.731111,-0.358328 0.18337,-0.823196 0.576072,-1.436995 1.153985,-1.867028 C 10.762933,15.395176 8.390157,14.500604 7.28691,12.344849 4.67503,12.473472 2.2851,12.822336 0.071705,13.348787 2.080763,12.619117 4.559026,12.357468 7.214745,12.271961 7.058256,11.331053 5.686197,11.589744 4.834016,11.626352 3.251049,11.696282 1.25829,11.892995 0,12.129274 1.82457,11.478867 4.38328,11.560037 6.854248,11.554976 6.098813,9.1854198 6.360461,5.4213288 8.008628,4.0194968 7.541591,2.8423098 7.686513,0.91698479 8.297354,-2.1067044e-7 10.137238,0.08293979 11.25317,0.88510879 12.409324,1.6513868 c 1.434037,-0.40795 2.941291,-0.610446 4.905722,-0.502921 0.826482,0.04607 1.685498,0.417085 2.307643,0.358394 0.610512,-0.05725 1.28366,-0.74242101 1.875704,-1.00400301 0.772785,-0.340912 1.426084,-0.47098 2.309023,-0.50285700067044 z"
     id="path4138"
     style="fill:#ff6b6b;fill-opacity:1;stroke-width:0.2;stroke-linejoin:round"
     inkscape:export-filename="D:\webdev\Projects\Portfolio (markallum.co.uk)\V1\img\github-icon.png"
     inkscape:export-xdpi="59.150002"
     inkscape:export-ydpi="59.150002"
     inkscape:connector-curvature="0" /></svg>